<mxfile host="app.diagrams.net" modified="2023-12-13T08:42:32.143Z" agent="Mozilla/5.0 (Macintosh; Intel Mac OS X 10_15_7) AppleWebKit/537.36 (KHTML, like Gecko) Chrome/119.0.0.0 Safari/537.36" etag="M0ZNU9Bs6m4WRdaaCdKW" version="22.1.8" type="device">
  <diagram id="J2OuSg8uE9UjYtb7iVZ3" name="Seite-1">
    <mxGraphModel dx="1226" dy="206" grid="1" gridSize="10" guides="1" tooltips="1" connect="1" arrows="1" fold="1" page="1" pageScale="1" pageWidth="827" pageHeight="1169" math="0" shadow="0">
      <root>
        <mxCell id="0" />
        <mxCell id="1" parent="0" />
        <mxCell id="NyvbNqOBbbY81mGbEyaF-1" value="" style="ellipse;whiteSpace=wrap;html=1;aspect=fixed;strokeWidth=4;" vertex="1" parent="1">
          <mxGeometry x="-520" y="820" width="80" height="80" as="geometry" />
        </mxCell>
        <mxCell id="NyvbNqOBbbY81mGbEyaF-3" value="" style="rounded=1;whiteSpace=wrap;html=1;fillColor=#000000;" vertex="1" parent="1">
          <mxGeometry x="-500" y="855" width="40" height="10" as="geometry" />
        </mxCell>
        <mxCell id="NyvbNqOBbbY81mGbEyaF-4" value="" style="rounded=1;whiteSpace=wrap;html=1;fillColor=#000000;rotation=-90;" vertex="1" parent="1">
          <mxGeometry x="-500" y="855" width="40" height="10" as="geometry" />
        </mxCell>
      </root>
    </mxGraphModel>
  </diagram>
</mxfile>
